# xmcd CD database file
#
# Track frame offsets:
#	150
#	14950
#	37862
#	52487
#	70450
#	85337
#	99812
#	110687
#	125912
#	145412
#	158650
#	170687
#	186287
#	200275
#	214187
#	238112
#	256262
#	268262
#
# Disc length: 3789 seconds
#
# Revision: 0
# Processed by: cddbd v1.5.1PL0 Copyright (c) Steve Scherf et al.
# Submitted via: CDex 1.51
#
DISCID=1a0ecb12
DTITLE=Casa Loma Jazzband - Washboard Wiggles
DYEAR=2004
DGENRE=Jazz
TTITLE0=Casa Loma 01 Washboard Wiggles
TTITLE1=Casa Loma 02 Some Do Aun Some Don't
TTITLE2=Casa Loma 03 I Lost My Gall From Memphis
TTITLE3=Casa Loma 04 The Mooche
TTITLE4=Casa Loma 05 Dow And Out Blues
TTITLE5=Casa Loma 06 Charleston
TTITLE6=Casa Loma 07 Ain't Misbehavi'n
TTITLE7=Casa Loma 08 Five Pennies
TTITLE8=Casa Loma 09 When You're Smiling
TTITLE9=Casa Loma 10 Appalachion Lament
TTITLE10=Casa Loma 11 Birmingham Breakdown
TTITLE11=Casa Loma 12 I Can't Dance
TTITLE12=Casa Loma 13 You'r Just My Type
TTITLE13=Casa Loma 14 Baltimore
TTITLE14=Casa Loma 15 Once Or Twice
TTITLE15=Casa Loma 16 Black Beauty
TTITLE16=Casa Loma 17 Tiny's Stomp
TTITLE17=Casa Loma 18 Casa Loma Stomp
EXTD=YEAR: 2004
EXTT0=
EXTT1=
EXTT2=
EXTT3=
EXTT4=
EXTT5=
EXTT6=
EXTT7=
EXTT8=
EXTT9=
EXTT10=
EXTT11=
EXTT12=
EXTT13=
EXTT14=
EXTT15=
EXTT16=
EXTT17=
PLAYORDER=
